<svg width="290" height="62" xmlns="http://www.w3.org/2000/svg" xmlns:xlink="http://www.w3.org/1999/xlink" xml:space="preserve" overflow="hidden"><g transform="translate(-776 -68)"><g><path d="M94.612 31.7027C96.1413 41.0027 88.04 46.1693 79.856 46.872 74.648 57.5773 56.2547 64.8107 40.3207 57.0193 33.5213 58.0527 29.76 56.358 26.8873 53.0927 32.7153 45.5907 50.3647 32.0953 71.92 39.06 83.4107 42.78 86.3867 34.0587 83.514 30.7933 72.664 18.3933 48.1327 29.5533 47.2647 30.4833 56.8953 15.748 91.326 11.6147 94.612 31.7027ZM61.5453 14.7767C61.5453 14.7767 53.7333 11.966 42.7593 16.74 42.7593 16.74 41.4573 16.1613 41.4573 16.1613 52.0662 9.12088 61.3525 6.16555 69.316 7.29533 64.5007 1.75667 41.3333-2.31467 28.1067 10.9533 15.7985 8.47461 3.81137 16.443 1.33266 28.7511 0.965981 30.5718 0.823815 32.4308 0.909333 34.286 1.57067 46.9753 15.376 54.9527 23.2707 52.7207 23.4631 52.7 23.6569 52.7 23.8493 52.7207 25.606 44.3507 32.736 24.8 61.6073 14.7767ZM127.534 26.3707 129.001 19.902 104.387 19.902 103.829 22.4027C103.356 23.9169 104.2 25.5283 105.714 26.0014 106.067 26.1115 106.437 26.1528 106.805 26.1227L118.255 26.1227 97.9807 44.02 96.6167 50.0133 122.76 50.0133 124.248 43.4 107.715 43.4ZM144.067 31.5787C142.91 31.2687 136.421 30.2973 136.834 28.0653 137.247 25.8333 140.368 25.296 141.856 25.3373 144.935 25.4407 145.989 26.784 145.989 27.28 146.372 28.5097 147.558 29.3086 148.841 29.202L153.76 29.202C154.297 26.1847 154.442 19.2407 143.137 19.2407 138.774 19.0303 134.53 20.7008 131.481 23.8287 129.766 25.8953 126.811 30.7107 129.828 34.41 131.419 36.27 135.532 37.7167 139.955 38.5433 142.807 39.1013 144.336 40.2587 144.088 41.602 143.902 42.5113 142.765 44.5573 138.549 44.5367 136.669 44.5367 132.597 44.2473 133.362 40.0107L125.591 40.0107C124.682 43.8547 124.351 50.5507 136.09 50.5507 140.616 50.5507 149.833 49.972 152.231 40.3413 153.946 33.48 146.155 32.0953 144.047 31.5787ZM171.265 42.2013C169.925 43.4401 168.148 44.0946 166.325 44.02 160.518 44.02 161.179 38.316 161.965 34.844 162.75 31.372 164.631 25.792 170.231 25.792 174.158 25.792 174.613 28.334 174.799 29.078L182.714 29.078C182.445 20.8113 176.039 19.1167 171.513 19.2407 159.113 19.53 155.496 29.9253 154.38 34.7407 151.135 48.8147 160.146 50.592 164.465 50.592 171.237 50.7604 177.46 46.8854 180.296 40.734L174.53 40.734C173.268 40.6956 172.058 41.236 171.244 42.2013ZM203.608 45.0947C201.326 47.7944 198.151 49.5841 194.659 50.1373 187.777 51.274 178.312 50.9847 180.689 41.0853 181.131 38.321 182.694 35.8612 185.008 34.286 188.375 32.4031 192.13 31.3212 195.982 31.124 196.561 31.124 200.901 30.7313 201.624 28.1687 202.347 25.606 198.379 25.482 197.284 25.4613 195.319 25.1482 193.341 25.9427 192.138 27.528L184.533 27.528C187.612 19.468 196.065 19.2613 198.338 19.2613 200.611 19.2613 211.151 19.2613 209.188 27.7553 206.212 40.6927 206.109 41.974 203.587 45.0947ZM200.219 34.7613C198.681 35.3923 197.091 35.8835 195.465 36.2287 193.895 36.704 190.919 36.89 189.472 38.2953 188.025 39.7007 186.041 44.3093 191.229 44.4953 195.391 44.6063 198.986 41.6045 199.619 37.4893 199.867 36.27 200.198 34.844 200.198 34.844ZM219.707 10.9947 215.574 10.9947 206.667 50.0133 214.582 50.0133 222.621 14.88C223.128 13.3642 222.307 11.7254 220.792 11.2198 220.437 11.1011 220.061 11.0527 219.687 11.0773ZM240.25 40.6513 245.933 40.6513C243.057 46.7658 236.859 50.624 230.103 50.5093 218.054 50.5093 218.798 39.7627 220.017 34.658 223.448 20.4807 232.913 19.158 237.129 19.158 242.771 19.158 251.596 21.4727 247.111 36.9107L227.54 36.9107C227.065 38.9773 226.651 43.9993 232.045 43.9373 233.519 44.013 234.974 43.5908 236.179 42.7387 236.902 42.4493 237.667 40.7753 240.229 40.734ZM228.677 31.8267 240.229 31.8267C241.201 26.288 237.77 25.6267 235.848 25.6267 233.926 25.6267 230.227 26.3913 228.656 31.9093ZM257.217 23.1053C253.206 26.0673 250.468 30.4389 249.55 35.34L246.223 49.9307 254.2 49.9307C254.2 49.9307 257.217 36.2907 257.734 34.4307 258.769 29.5238 263.297 26.1566 268.295 26.5773L270.134 19.8193C265.573 19.5282 261.037 20.709 257.197 23.188ZM271.043 13.95 271.25 12.9993 275.507 12.9993 275.321 13.95 273.771 13.95 272.903 18.0833 271.767 18.0833 272.655 13.95ZM278.049 12.9993 278.442 16.6987 280.509 12.9993 282.079 12.9993 281.005 18.1247 279.951 18.1247 280.881 13.9913 278.814 18.1247 277.946 18.1247 277.45 13.9913 276.665 18.1247 275.611 18.1247 276.685 12.9993Z" fill="#236BF5" fill-rule="nonzero" fill-opacity="1" transform="matrix(1.02425 0 0 1 776 68)"/></g></g></svg>